<svg width="512" height="512" xmlns="http://www.w3.org/2000/svg" xmlns:xlink="http://www.w3.org/1999/xlink">
 <g>
  <title>background</title>
  <rect fill="none" id="canvas_background" height="402" width="582" y="-1" x="-1"/>
 </g>
 <g>
  <title>Layer 1</title>
  <path fill="#effcfb" id="svg_2" d="m90.4,379.5c10.5,-9.3 37.1,-30 125.5,-68.8l81,0.5c88.5,38.8 114.1,58.9 124.6,68.2c4.1,3.6 7.7,9.6 10.9,17.4c24.7,-35.1 39.2,-77.9 39.2,-124.1c0.1,-119.1 -96.5,-215.7 -215.6,-215.7c-119.1,0 -215.7,96.6 -215.7,215.8c0,46.2 14.5,89 39.2,124.1c3.3,-7.8 6.9,-13.9 10.9,-17.4z" class="st0"/>
  <path fill="#00a79d" id="svg_3" d="m142.9,456.5c1.2,-9.6 2,-15.4 2,-15.4s0,6.2 0,16.7c26.5,15.9 56.6,26.3 88.9,29.6l14.1,-98.6l-11.1,-16.3l19.4,-19.7l18.5,19.5l-10.7,16.5l14.1,98.6c32.2,-3.3 62.3,-13.7 88.7,-29.5c0,-10.5 0,-16.8 0,-16.8s0.8,5.9 2,15.5c25,-15.4 46.7,-35.8 63.6,-59.8c-3.3,-7.7 -6.9,-13.8 -10.9,-17.4c-10.5,-9.3 -36.1,-29.4 -124.6,-68.2l-81,-0.5c-88.5,38.8 -115.1,59.5 -125.5,68.8c-4.1,3.6 -7.6,9.6 -10.9,17.4c16.9,23.9 38.4,44.2 63.4,59.6z" class="st1"/>
  <path fill="#dcc5a1" id="svg_5" d="m213.3,236.5l0,97.2c11.7,13.8 27.1,21 42.6,21.1l0,-157.7c-21.3,0 -42.6,13.1 -42.6,39.4z" class="st2"/>
  <path fill="#edd9b4" id="svg_6" d="m255.9,197.1l0,157.7c15.4,0.1 30.9,-6.8 42.6,-21.1l0,-97.2c0,-26.3 -21.3,-39.4 -42.6,-39.4z" class="st3"/>
  <path fill="#bc9f82" clip-rule="evenodd" fill-rule="evenodd" id="svg_7" d="m298.5,232.6l0,65.1c-16.1,11.7 -31.6,18.3 -42.6,18.3c-10.9,0 -26.5,-6.6 -42.6,-18.3l0,-65.1c0,-52.5 85.2,-52.5 85.2,0" class="st4"/>
  <path fill="#4b1f0d" clip-rule="evenodd" fill-rule="evenodd" id="svg_8" d="m318.8,111.5c18.7,0 33.9,-15.2 33.9,-33.9c0,-18.7 -15.2,-33.9 -33.9,-33.9c-18.7,0 -33.9,15.3 -33.9,33.9c0,18.7 15.2,33.9 33.9,33.9" class="st5"/>
  <path fill="#4b1f0d" clip-rule="evenodd" fill-rule="evenodd" id="svg_9" d="m285.5,96.6c18.7,0 33.9,-15.2 33.9,-33.9c0,-18.7 -15.2,-33.9 -33.9,-33.9c-18.7,0 -33.9,15.2 -33.9,33.9c0,18.7 15.2,33.9 33.9,33.9" class="st5"/>
  <path fill="#4b1f0d" clip-rule="evenodd" fill-rule="evenodd" id="svg_10" d="m234.6,91.4c18.7,0 33.9,-15.2 33.9,-33.9c0,-18.7 -15.2,-33.9 -33.9,-33.9c-18.7,0 -33.9,15.2 -33.9,33.9c-0.1,18.6 15.2,33.9 33.9,33.9" class="st5"/>
  <path fill="#4b1f0d" clip-rule="evenodd" fill-rule="evenodd" id="svg_11" d="m188.9,108c18.7,0 33.9,-15.3 33.9,-33.9c0,-18.7 -15.2,-33.9 -33.9,-33.9c-18.7,0 -33.9,15.2 -33.9,33.9c0,18.7 15.3,33.9 33.9,33.9" class="st5"/>
  <path fill="#4b1f0d" clip-rule="evenodd" fill-rule="evenodd" id="svg_12" d="m162.6,145.8c18.7,0 33.9,-15.2 33.9,-33.9c0,-18.7 -15.2,-33.9 -33.9,-33.9c-18.7,0 -33.9,15.2 -33.9,33.9c0,18.6 15.2,33.9 33.9,33.9" class="st5"/>
  <path fill="#4b1f0d" clip-rule="evenodd" fill-rule="evenodd" id="svg_13" d="m347.8,146.6c18.7,0 33.9,-15.2 33.9,-33.9c0,-18.7 -15.3,-33.9 -33.9,-33.9c-18.7,0 -33.9,15.2 -33.9,33.9c0,18.7 15.2,33.9 33.9,33.9" class="st5"/>
  <path fill="#4b1f0d" clip-rule="evenodd" fill-rule="evenodd" id="svg_14" d="m349.5,194c18.7,0 33.9,-15.2 33.9,-33.9c0,-18.7 -15.2,-33.9 -33.9,-33.9c-18.7,0 -33.9,15.2 -33.9,33.9c0,18.7 15.3,33.9 33.9,33.9" class="st5"/>
  <path fill="#4b1f0d" clip-rule="evenodd" fill-rule="evenodd" id="svg_15" d="m325,251.1c18.7,0 33.9,-15.2 33.9,-33.9c0,-18.7 -15.2,-33.9 -33.9,-33.9c-18.7,0 -33.9,15.2 -33.9,33.9c-0.1,18.6 15.2,33.9 33.9,33.9" class="st5"/>
  <path fill="#4b1f0d" clip-rule="evenodd" fill-rule="evenodd" id="svg_16" d="m160,188.8c18.7,0 33.9,-15.2 33.9,-33.9c0,-18.7 -15.2,-33.9 -33.9,-33.9c-18.7,0 -33.9,15.2 -33.9,33.9c0,18.6 15.2,33.9 33.9,33.9" class="st5"/>
  <path fill="#4b1f0d" clip-rule="evenodd" fill-rule="evenodd" id="svg_17" d="m184.6,255.5c18.7,0 33.9,-15.2 33.9,-33.9c0,-18.7 -15.2,-33.9 -33.9,-33.9c-18.7,0 -33.9,15.2 -33.9,33.9c-0.1,18.6 15.2,33.9 33.9,33.9" class="st5"/>
  <path fill="#4b1f0d" clip-rule="evenodd" fill-rule="evenodd" id="svg_18" d="m344.7,226.5c18.7,0 33.9,-15.2 33.9,-33.9c0,-18.7 -15.2,-33.9 -33.9,-33.9c-18.7,0 -33.9,15.2 -33.9,33.9c-0.1,18.6 15.2,33.9 33.9,33.9" class="st5"/>
  <path fill="#4b1f0d" clip-rule="evenodd" fill-rule="evenodd" id="svg_19" d="m164.9,224.1c18.7,0 33.9,-15.2 33.9,-33.9c0,-18.7 -15.2,-33.9 -33.9,-33.9c-18.7,0 -33.9,15.2 -33.9,33.9c0,18.6 15.2,33.9 33.9,33.9" class="st5"/>
  <path fill="#edd9b4" clip-rule="evenodd" fill-rule="evenodd" id="svg_21" d="m157.5,176.1c-3.4,-2.5 -7.1,-3.5 -10.3,-2.5c-7.5,2.5 -10.1,15 -5.8,27.9c4.3,13 13.8,21.5 21.3,19c0.5,-0.2 1,-0.4 1.5,-0.7c3.6,14.8 7.6,25.4 9.7,28.4c10.3,15.2 59.1,55.3 82.2,55.3l0,-241.5c-85.5,0 -101.6,61.6 -98.6,114.1z" class="st6"/>
  <path fill="#edd9b4" clip-rule="evenodd" fill-rule="evenodd" id="svg_22" d="m366.3,173.7c-3.8,-1.3 -8.1,0.3 -12.1,3.9c3.4,-52.9 -12.2,-115.6 -98.3,-115.6l0,0l0,241.7l0,0c23.1,0 71.9,-40.2 82.2,-55.3c2.1,-3.1 6.3,-14.1 9.9,-29.4c0.9,0.7 1.8,1.3 2.9,1.6c7.5,2.5 17,-6 21.3,-19c4.2,-12.9 1.6,-25.4 -5.9,-27.9z" class="st7"/>
  <path fill="#4b1f0d" clip-rule="evenodd" fill-rule="evenodd" id="svg_23" d="m244.2,120.3c18.7,0 33.9,-15.2 33.9,-33.9c0,-18.7 -15.2,-33.9 -33.9,-33.9c-18.7,0 -33.9,15.2 -33.9,33.9c0,18.7 15.2,33.9 33.9,33.9" class="st5"/>
  <path fill="#4b1f0d" clip-rule="evenodd" fill-rule="evenodd" id="svg_24" d="m290.7,118.6c18.7,0 33.9,-15.2 33.9,-33.9c0,-18.7 -15.2,-33.9 -33.9,-33.9c-18.7,0 -33.9,15.2 -33.9,33.9c0,18.6 15.3,33.9 33.9,33.9" class="st5"/>
  <path fill="#4b1f0d" clip-rule="evenodd" fill-rule="evenodd" id="svg_25" d="m210,130.9c18.7,0 33.9,-15.2 33.9,-33.9c0,-18.7 -15.2,-33.9 -33.9,-33.9c-18.7,0 -33.9,15.2 -33.9,33.9c0,18.6 15.2,33.9 33.9,33.9" class="st5"/>
  <path fill="#4b1f0d" clip-rule="evenodd" fill-rule="evenodd" id="svg_26" d="m184.8,142.7c15.9,0 28.9,-13 28.9,-28.9c0,-15.9 -13,-28.9 -28.9,-28.9c-15.9,0 -28.9,13 -28.9,28.9c0,15.9 13,28.9 28.9,28.9" class="st5"/>
  <path fill="#4b1f0d" clip-rule="evenodd" fill-rule="evenodd" id="svg_27" d="m318,139.6c18.7,0 33.9,-15.2 33.9,-33.9c0,-18.7 -15.2,-33.9 -33.9,-33.9c-18.7,0 -33.9,15.2 -33.9,33.9c-0.1,18.7 15.2,33.9 33.9,33.9" class="st5"/>
  <path fill="#4b1f0d" clip-rule="evenodd" fill-rule="evenodd" id="svg_28" d="m345.5,162.6c13.2,0 23.9,-10.8 23.9,-23.9c0,-13.2 -10.8,-23.9 -23.9,-23.9c-13.2,0 -23.9,10.8 -23.9,23.9c0,13.2 10.7,23.9 23.9,23.9" class="st5"/>
  <path fill="#4b1f0d" clip-rule="evenodd" fill-rule="evenodd" id="svg_29" d="m169.4,167.2c12.8,0 23.2,-10.4 23.2,-23.2c0,-12.8 -10.4,-23.2 -23.2,-23.2c-12.8,0 -23.2,10.4 -23.2,23.2c0,12.8 10.4,23.2 23.2,23.2" class="st5"/>
  <path fill="#4b1f0d" clip-rule="evenodd" fill-rule="evenodd" id="svg_30" d="m164.6,183c8.2,0 14.8,-6.7 14.8,-14.8c0,-8.2 -6.7,-14.8 -14.8,-14.8c-8.2,0 -14.8,6.7 -14.8,14.8c-0.1,8.2 6.6,14.8 14.8,14.8" class="st5"/>
  <path fill="#4b1f0d" clip-rule="evenodd" fill-rule="evenodd" id="svg_31" d="m349.7,184.8c8.2,0 14.8,-6.7 14.8,-14.8c0,-8.2 -6.7,-14.8 -14.8,-14.8c-8.2,0 -14.8,6.7 -14.8,14.8c0,8.1 6.7,14.8 14.8,14.8" class="st5"/>
  <path fill="#4b1f0d" clip-rule="evenodd" fill-rule="evenodd" id="svg_32" d="m166.3,196.2c5.8,0 10.4,-4.7 10.4,-10.4c0,-5.7 -4.7,-10.4 -10.4,-10.4c-5.7,0 -10.4,4.7 -10.4,10.4c0,5.7 4.7,10.4 10.4,10.4" class="st5"/>
  <path fill="#4b1f0d" clip-rule="evenodd" fill-rule="evenodd" id="svg_33" d="m348,195.3c5.8,0 10.4,-4.7 10.4,-10.4c0,-5.7 -4.7,-10.4 -10.4,-10.4c-5.7,0 -10.4,4.7 -10.4,10.4c0,5.7 4.6,10.4 10.4,10.4" class="st5"/>
  <path fill="#010101" id="svg_34" d="m349.6,171.9c-2.7,-2.1 -27.9,-10.8 -37.5,-11.1c0,0 -21.6,-2.6 -32.3,2.4c-10.7,4.9 -12.9,4.2 -23.3,4.7c0,0 -0.4,0 -1,0c-0.7,0 -1,0 -1,0c-10.4,-0.5 -12.6,0.2 -23.3,-4.7c-10.7,-4.9 -32.3,-2.4 -32.3,-2.4c-9.6,0.2 -34.8,8.9 -37.5,11.1c-2.7,2.1 0,5.5 0,5.5c10.9,-0.9 12.3,17.5 12.3,17.5c1.3,5 3.1,9.5 6,13.7c3.6,5.2 8.7,9.4 14.7,11.6c5.7,2.1 11,2.2 17.1,2.2c7.9,-0.1 15.2,-2.1 21.2,-7.2c11.1,-9.3 14.9,-33.5 14.9,-33.5c-1.5,-0.7 -1.6,-3.5 -1.6,-3.5c-0.1,-4.1 6.4,-4.5 8.5,-4.5c0.3,0 0.6,0 1,0c0.4,0 0.7,0 1,0c2,0 8.6,0.4 8.5,4.5c0,0 -0.1,2.8 -1.6,3.5c0,0 3.9,24.2 14.9,33.5c6,5 13.4,7.1 21.2,7.2c6.1,0.1 11.4,-0.1 17.1,-2.2c6,-2.2 11.1,-6.4 14.7,-11.6c2.9,-4.2 4.8,-8.8 6,-13.7c0,0 1.4,-18.5 12.4,-17.5c-0.1,0 2.6,-3.4 -0.1,-5.5m-109.1,18.8c-2,14.1 -5.7,21.5 -14.7,25.7c-9.1,4.2 -17,3.5 -17,3.5s-7.7,0.7 -16.8,-3.5c-9.1,-4.2 -12.5,-11.6 -14.5,-25.7c-0.3,-2.4 -0.6,-4.8 -0.6,-7.2c0.1,-6.6 3.3,-13.9 9.7,-16.8c4,-1.8 9.4,-2.4 13.7,-2.7c2.8,-0.2 5.7,-0.4 8.5,-0.4c0.9,0 1.8,0.1 2.7,0.2c7.3,0.6 16.1,0.6 22.4,4.8c1.1,0.8 2.2,1.6 3.2,2.7c4.7,5.2 4.4,12.8 3.4,19.4m92.9,0c-2,14.1 -5.4,21.5 -14.5,25.7c-9.1,4.2 -16.8,3.5 -16.8,3.5s-7.9,0.7 -17,-3.5c-9.1,-4.2 -12.7,-11.6 -14.7,-25.7c-0.9,-6.6 -1.3,-14.2 3.5,-19.4c1,-1.1 2,-1.9 3.2,-2.7c6.3,-4.2 15.1,-4.2 22.4,-4.8c0.9,-0.1 1.8,-0.2 2.6,-0.2c2.8,0 5.7,0.2 8.5,0.4c4.3,0.3 9.8,0.9 13.7,2.7c6.3,2.9 9.6,10.2 9.7,16.8c0,2.3 -0.2,4.8 -0.6,7.2" class="st8"/>
  <defs opacity="0.3">
   <rect y="163.5" x="176.9" width="64.2" id="SVGID_1_" height="56.3"/>
  </defs>
  <clipPath opacity="0.3" id="SVGID_2_">
   <use id="svg_37" xlink:href="#SVGID_1_"/>
  </clipPath>
  <path opacity="0.3" fill="#5c3915" clip-path="url(#SVGID_2_)" id="svg_38" d="m240.5,190.7c-2,14.1 -5.7,21.5 -14.7,25.7c-9.1,4.2 -17,3.5 -17,3.5s-7.7,0.7 -16.8,-3.5c-9.1,-4.2 -12.5,-11.6 -14.5,-25.7c-0.3,-2.4 -0.6,-4.8 -0.6,-7.2c0.1,-6.6 3.3,-13.9 9.7,-16.8c4,-1.8 9.4,-2.4 13.7,-2.7c2.8,-0.2 5.7,-0.4 8.5,-0.4c0.9,0 1.8,0.1 2.7,0.2c7.3,0.6 16.1,0.6 22.4,4.8c1.1,0.8 2.2,1.6 3.2,2.7c4.7,5.2 4.4,12.8 3.4,19.4" class="st10"/>
  <defs opacity="0.3">
   <rect y="163.5" x="269.8" width="64.2" id="SVGID_3_" height="56.3"/>
  </defs>
  <clipPath opacity="0.3" id="SVGID_4_">
   <use id="svg_41" xlink:href="#SVGID_3_"/>
  </clipPath>
  <path opacity="0.3" fill="#5c3915" clip-path="url(#SVGID_4_)" id="svg_42" d="m333.4,190.7c-2,14.1 -5.4,21.5 -14.5,25.7c-9.1,4.2 -16.8,3.5 -16.8,3.5s-7.9,0.7 -17,-3.5c-9.1,-4.2 -12.7,-11.6 -14.7,-25.7c-0.9,-6.6 -1.3,-14.2 3.5,-19.4c1,-1.1 2,-1.9 3.2,-2.7c6.3,-4.2 15.1,-4.2 22.4,-4.8c0.9,-0.1 1.8,-0.2 2.6,-0.2c2.8,0 5.7,0.2 8.5,0.4c4.3,0.3 9.8,0.9 13.7,2.7c6.3,2.9 9.6,10.2 9.7,16.8c0,2.3 -0.2,4.8 -0.6,7.2" class="st11"/>
  <polygon fill="#ededed" clip-rule="evenodd" fill-rule="evenodd" id="svg_44" points="213.3,299.4 209.3,313.6 219.8,389.7 255.9,352.4   " class="st12"/>
  <polygon fill="#ededed" clip-rule="evenodd" fill-rule="evenodd" id="svg_45" points="298.5,299.7 301.9,313.4 292.1,390.5 255.9,352.4   " class="st12"/>
  <defs opacity="0.1">
   <rect y="388.8" x="247.8" width="16.3" id="SVGID_5_" height="0.5"/>
  </defs>
  <clipPath opacity="0.1" id="SVGID_6_">
   <use id="svg_48" xlink:href="#SVGID_5_"/>
  </clipPath>
  <polygon opacity="0.1" fill="#010101" clip-rule="evenodd" fill-rule="evenodd" clip-path="url(#SVGID_6_)" id="svg_49" points="247.9,388.8 264.1,388.8 264.1,389.3 247.9,389.3    " class="st14"/>
  <path fill="#342214" id="svg_51" d="m213.4,177.2c5.9,0 10.7,5.4 10.7,12.1c0,6.7 -4.8,12.1 -10.7,12.1c-5.9,0 -10.7,-5.4 -10.7,-12.1c0.1,-6.7 4.9,-12.1 10.7,-12.1" class="st15"/>
  <path fill="#342214" id="svg_52" d="m300,177.2c5.9,0 10.7,5.4 10.7,12.1c0,6.7 -4.8,12.1 -10.7,12.1c-5.9,0 -10.7,-5.4 -10.7,-12.1c0.1,-6.7 4.8,-12.1 10.7,-12.1" class="st15"/>
  <path fill="#ffffff" id="svg_53" d="m234.7,253.7c3.8,8.4 12.2,14.2 22,14.2c9.8,0 18.2,-5.8 22,-14.2l-44,0z" class="st16"/>
  <polygon fill="#be1e2d" id="svg_54" points="256,488.5 256,488.5 256,488.5  " class="st17"/>
  <path fill="#200d45" id="svg_55" d="m142.9,456.5c0.7,0.4 1.4,0.8 2,1.2c0,-10.4 0,-16.7 0,-16.7s-0.8,5.9 -2,15.5z" class="st18"/>
  <path fill="#200d45" id="svg_56" d="m366.9,457.9c0.7,-0.4 1.4,-0.8 2.1,-1.3c-1.2,-9.6 -2,-15.5 -2,-15.5s-0.1,6.3 -0.1,16.8z" class="st18"/>
  <path id="svg_57" d="m264.1,388.8l10.8,-16.4l-18.9,-20l-19.3,20l11.3,16.4l-14.1,98.6c7.3,0.7 14.7,1.1 22.2,1.1l0,0c7.5,0 14.9,-0.4 22.2,-1.1l-14.2,-98.6z"/>
 </g>
</svg>